HIERARCHY
ROOT hip
{
  OFFSET 0 0 0
  CHANNELS 6 Xposition Yposition Zposition Zrotation Yrotation Xrotation
  JOINT abdomen
  {
    OFFSET 0 20.6881 -0.73152
    CHANNELS 3 Zrotation Xrotation Yrotation
    JOINT chest
    {
      OFFSET 0 11.7043 -0.48768
      CHANNELS 3 Zrotation Xrotation Yrotation
      JOINT neck
      {
        OFFSET 0 22.1894 -2.19456
        CHANNELS 3 Zrotation Xrotation Yrotation
        JOINT head
        {
          OFFSET -0.24384 7.07133 1.2192
          CHANNELS 3 Zrotation Xrotation Yrotation
          JOINT leftEye
          {
            OFFSET 4.14528 8.04674 8.04672
            CHANNELS 3 Zrotation Xrotation Yrotation
            End Site
            {
              OFFSET 1 0 0
            }
          }
          JOINT rightEye
          {
            OFFSET -3.6576 8.04674 8.04672
            CHANNELS 3 Zrotation Xrotation Yrotation
            End Site
            {
              OFFSET 1 0 0
            }
          }
        }
      }
      JOINT rCollar
      {
        OFFSET -2.68224 19.2634 -4.8768
        CHANNELS 3 Zrotation Xrotation Yrotation
        JOINT rShldr
        {
          OFFSET -8.77824 -1.95073 1.46304
          CHANNELS 3 Zrotation Xrotation Yrotation
          JOINT rForeArm
          {
            OFFSET -28.1742 -1.7115 0.48768
            CHANNELS 3 Zrotation Xrotation Yrotation
            JOINT rHand
            {
              OFFSET -22.5879 0.773209 7.07136
              CHANNELS 3 Zrotation Xrotation Yrotation
              JOINT rThumb1
              {
                OFFSET -1.2192 -0.487915 3.41376
                CHANNELS 3 Zrotation Xrotation Yrotation
                JOINT rThumb2
                {
                  OFFSET -3.37035 -0.52449 3.41376
                  CHANNELS 3 Zrotation Xrotation Yrotation
                  End Site
                  {
                    OFFSET -1.78271 -1.18214 1.43049
                  }
                }
              }
              JOINT rIndex1
              {
                OFFSET -7.75947 0.938293 5.60832
                CHANNELS 3 Zrotation Xrotation Yrotation
                JOINT rIndex2
                {
                  OFFSET -2.54057 -0.884171 1.56538
                  CHANNELS 3 Zrotation Xrotation Yrotation
                  End Site
                  {
                    OFFSET -1.62519 -0.234802 1.16502
                  }
                }
              }
              JOINT rMid1
              {
                OFFSET -8.24714 1.18213 3.41376
                CHANNELS 3 Zrotation Xrotation Yrotation
                JOINT rMid2
                {
                  OFFSET -3.10165 -0.590103 1.0647
                  CHANNELS 3 Zrotation Xrotation Yrotation
                  End Site
                  {
                    OFFSET -2.48547 -0.328903 0.83742
                  }
                }
              }
              JOINT rRing1
              {
                OFFSET -8.82822 0.546677 1.51678
                CHANNELS 3 Zrotation Xrotation Yrotation
                JOINT rRing2
                {
                  OFFSET -2.60934 -0.819778 -0.0198488
                  CHANNELS 3 Zrotation Xrotation Yrotation
                  End Site
                  {
                    OFFSET -2.33842 -0.294052 0.168128
                  }
                }
              }
              JOINT rPinky1
              {
                OFFSET -8.27202 -0.0477905 -0.4584
                CHANNELS 3 Zrotation Xrotation Yrotation
                JOINT rPinky2
                {
                  OFFSET -1.82734 -0.647385 -0.700984
                  CHANNELS 3 Zrotation Xrotation Yrotation
                  End Site
                  {
                    OFFSET -1.69225 -0.51767 -0.607171
                  }
                }
              }
            }
          }
        }
      }
      JOINT lCollar
      {
        OFFSET 2.68224 19.2634 -4.8768
        CHANNELS 3 Zrotation Xrotation Yrotation
        JOINT lShldr
        {
          OFFSET 8.77824 -1.95073 1.46304
          CHANNELS 3 Zrotation Xrotation Yrotation
          JOINT lForeArm
          {
            OFFSET 28.1742 -1.7115 0.48768
            CHANNELS 3 Zrotation Xrotation Yrotation
            JOINT lHand
            {
              OFFSET 22.5879 0.773209 7.07136
              CHANNELS 3 Zrotation Xrotation Yrotation
              JOINT lThumb1
              {
                OFFSET 1.2192 -0.487915 3.41376
                CHANNELS 3 Zrotation Xrotation Yrotation
                JOINT lThumb2
                {
                  OFFSET 3.37035 -0.52449 3.41376
                  CHANNELS 3 Zrotation Xrotation Yrotation
                  End Site
                  {
                    OFFSET 1.78271 -1.18214 1.43049
                  }
                }
              }
              JOINT lIndex1
              {
                OFFSET 7.75947 0.938293 5.60832
                CHANNELS 3 Zrotation Xrotation Yrotation
                JOINT lIndex2
                {
                  OFFSET 2.54057 -0.884171 1.56538
                  CHANNELS 3 Zrotation Xrotation Yrotation
                  End Site
                  {
                    OFFSET 1.62519 -0.234802 1.16502
                  }
                }
              }
              JOINT lMid1
              {
                OFFSET 8.24714 1.18213 3.41376
                CHANNELS 3 Zrotation Xrotation Yrotation
                JOINT lMid2
                {
                  OFFSET 3.10165 -0.590103 1.0647
                  CHANNELS 3 Zrotation Xrotation Yrotation
                  End Site
                  {
                    OFFSET 2.48547 -0.328903 0.83742
                  }
                }
              }
              JOINT lRing1
              {
                OFFSET 8.82822 0.546677 1.51678
                CHANNELS 3 Zrotation Xrotation Yrotation
                JOINT lRing2
                {
                  OFFSET 2.60934 -0.819778 -0.0198488
                  CHANNELS 3 Zrotation Xrotation Yrotation
                  End Site
                  {
                    OFFSET 2.33842 -0.294052 0.168128
                  }
                }
              }
              JOINT lPinky1
              {
                OFFSET 8.27202 -0.0477905 -0.4584
                CHANNELS 3 Zrotation Xrotation Yrotation
                JOINT lPinky2
                {
                  OFFSET 1.82734 -0.647385 -0.700984
                  CHANNELS 3 Zrotation Xrotation Yrotation
                  End Site
                  {
                    OFFSET 1.69225 -0.51767 -0.607171
                  }
                }
              }
            }
          }
        }
      }
    }
  }
  JOINT rButtock
  {
    OFFSET -8.77824 4.35084 1.2192
    CHANNELS 3 Zrotation Xrotation Yrotation
    JOINT rThigh
    {
      OFFSET 0 -1.70687 -2.19456
      CHANNELS 3 Zrotation Xrotation Yrotation
      JOINT rShin
      {
        OFFSET 0 -36.8199 0.73152
        CHANNELS 3 Zrotation Xrotation Yrotation
        JOINT rFoot
        {
          OFFSET 0.73152 -45.1104 -5.12064
          CHANNELS 3 Zrotation Xrotation Yrotation
          End Site
          {
            OFFSET -1.1221 -3.69964 12.103
          }
        }
      }
    }
  }
  JOINT lButtock
  {
    OFFSET 8.77824 4.35084 1.2192
    CHANNELS 3 Zrotation Xrotation Yrotation
    JOINT lThigh
    {
      OFFSET 0 -1.70687 -2.19456
      CHANNELS 3 Zrotation Xrotation Yrotation
      JOINT lShin
      {
        OFFSET 0 -36.8199 0.73152
        CHANNELS 3 Zrotation Xrotation Yrotation
        JOINT lFoot
        {
          OFFSET -0.73152 -45.1104 -5.12064
          CHANNELS 3 Zrotation Xrotation Yrotation
          End Site
          {
            OFFSET 1.1221 -3.69964 12.103
          }
        }
      }
    }
  }
}
MOTION
Frames:	4
Frame Time:	0.03333
-60.6316 50.425 54.981100000000005 -49.468592 -74.024812 51.070127 6.43403 12.140945 -0.0 1.795804 -8.26157 6.607452 -8.252936 27.550605 -116.297919 28.879726 29.867397 131.041178 0.002477 -0.0 -0.003438 0.002477 -0.0 -0.003438 -155.549157 -3.804484 161.89912 -112.889519 35.410574 68.691006 173.177915 49.996518 -61.997305 -14.663252 -27.165136 -6.908627 6.668334 -6.659009 -0.642346 -88.040484 25.154196 78.917073 -169.303962 -47.43464 121.431452 -159.901294 -18.643682 118.993343 -0.057192 0.168046 0.031053 -34.369032 55.162004 28.971345 0.000635 -0.060832 -0.019229 9.081352 14.186503 1.88755 -8.18881 -17.577018 -7.726548 -146.59126 10.369393 -143.321846 148.547463 26.63935 -153.44793 17.144674 7.947048 42.498924 -11.389357 -40.77385 44.071299 -109.508995 -58.666236 -111.685354 172.746888 -10.423213 -89.929814 -59.081809 -68.96285 -45.424646 -10.211201 -18.050794 4.563305 150.355816 -0.400382 -109.887097 -5.589887 -17.377423 2.452938 163.793631 -6.165934 -143.481699 145.118911 0.185821 179.18588 66.966085 87.687286 -80.220297 0.529787 -1.364122 0.490188 2.799399 -13.058081 4.665726 -0.007628 0.000699 -0.007628 -15.824488 0.496422 -0.181927 11.155936 59.213285 156.878491 114.695843 -9.930692 178.830935 0.000372 -0.001079 0.000558 71.776959 -55.754837 69.003784 11.549106 74.619146 -132.232654 126.909759 -21.820535 -135.034075
-61.041599999999995 50.32489999999999 55.4191 -49.657202 -73.47765 51.802718 7.013928 11.69054 -0.0 1.890211 -8.262225 6.574404 10.941104 21.269553 98.965327 -30.620324 8.463842 -77.042556 -0.000511 0.0 -0.000436 -0.000511 0.0 -0.000436 -147.86569 28.559799 152.689673 86.459342 -19.481419 92.869107 174.59773 31.979566 38.475662 -144.170644 33.466715 125.601282 0.566939 -0.561829 -0.084534 -45.552412 28.224149 40.829041 -13.870469 18.81547 9.289991 70.167087 -56.804619 24.218864 -10.976547 25.789734 7.640239 -17.878686 42.278265 14.435802 -72.348274 72.976106 90.217366 -156.15924 -46.611111 -175.946047 -81.324293 -51.181639 -79.740648 -140.053906 -5.80107 -137.6355 -0.163098 -0.989965 0.219297 179.940785 -5.617107 -111.043329 146.055092 -7.476311 -160.292746 -12.819318 -6.828317 -20.904926 89.135999 38.427008 -50.299228 2.006305 -16.245603 -26.244446 -32.027148 -52.748495 3.151947 -126.969037 -64.361027 -65.215879 158.522141 -0.192041 -142.145336 -13.375433 -29.993581 0.976335 145.119177 0.184799 179.187959 66.99476 87.682901 -80.248544 1.149369 -2.914807 1.06358 154.157847 36.639701 148.347386 -0.000571 -5.4e-05 -0.000857 -14.568375 0.406802 -89.785746 -46.133968 3.391563 100.535418 -172.078564 -9.606763 53.543235 -0.0 -5.4e-05 -0.000413 73.74873 -55.873216 76.433802 51.102485 63.157346 27.870256 1.746604 -9.211711 -92.688724
-61.4173 50.2527 55.8037 -49.788099 -73.008752 52.357807 5.961391 7.091261 139.773059 -5.274535 0.853444 -133.312766 10.014973 17.583602 76.986226 -27.691506 -3.115079 -58.063579 0.003037 -0.0 -0.00162 -0.002669 0.0 -0.001195 -155.613774 -4.236253 161.991558 -82.180348 20.429621 51.893321 -93.401427 39.50451 -124.594652 -172.4503 -78.63025 168.589625 -68.482543 37.953812 35.659533 -148.792706 -35.102546 85.705019 -2.685334 4.227105 1.583252 -178.243279 -34.215969 106.37007 -149.312296 22.338575 135.906137 10.472541 -21.50916 -1.18323 -0.002944 -0.06086 -0.018954 -154.382363 11.216875 170.332735 0.4653 1.226468 0.428566 -9.16318 -24.654092 -10.48759 155.548027 -3.804207 -161.900239 -20.349934 6.207914 50.516667 -108.980352 88.842491 90.371897 107.511271 84.220649 -107.603578 173.77067 -11.440014 -89.890853 -169.553402 -26.284079 -98.926259 46.208707 39.652686 -36.318435 -178.207695 -35.124564 -108.575562 160.740917 -6.877221 -143.275045 163.024157 -3.986742 -142.877784 145.120513 0.225924 179.200986 138.65032 -60.694401 160.699204 77.071836 -51.584584 75.529835 -3.031942 -1.029818 1.24151 -179.995694 75.749343 -0.002946 131.119279 70.82395 -47.399407 -57.242413 1.372154 -97.09209 -85.978283 45.425512 -160.62829 -0.0 -0.001365 -0.000986 75.485415 -55.932914 77.89574 48.803854 63.253966 15.50667 -144.162106 -6.239945 67.267803
-61.7623 50.2147 56.1367 -49.947268 -72.657962 52.878913 6.246188 6.877532 137.572362 -5.384183 0.66508 -131.23294 10.528524 24.716424 118.029035 -30.145198 18.586946 -93.603153 0.002488 -0.0 -0.00149 0.002488 -0.0 -0.00149 4.239325 -44.742766 -8.647651 -71.314948 -28.760272 -84.686475 178.634141 2.906615 -70.532068 -14.133689 -30.495717 -7.731517 -94.79145 37.827991 54.28378 -79.512517 -3.449569 57.845036 -140.166774 2.32668 115.877295 -49.172682 54.542468 32.662527 68.981169 -80.15499 40.575746 -34.738068 55.018532 29.186569 -71.539528 -72.142359 -88.495241 11.998524 46.036866 2.723266 19.449523 67.282413 13.090438 -82.034485 -53.764822 -80.614504 -4.239455 -44.742755 8.647653 61.444155 33.19069 -114.655222 -76.728129 68.563653 115.749383 -142.446079 -42.91499 -145.317741 93.743834 37.964314 -53.548545 129.94151 -18.790969 -76.717672 139.796094 2.902076 -115.658746 -8.906125 0.518402 9.223411 171.870265 -41.09114 -145.160564 -80.911838 -77.67127 -52.578529 69.295791 72.947053 -87.016665 -5.044089 28.344283 0.569435 23.39081 -36.349623 22.493013 127.290055 -29.833508 126.248494 -0.001829 -2e-06 -0.000914 -16.336825 2.325035 94.779387 47.502902 -14.344577 -3.181958 35.666169 69.804677 -139.801307 0.002286 -2e-06 0.002286 78.818108 -57.287442 -180.0 74.302403 -29.075836 -19.422227 2.657616 -25.249054 -93.592482
